<?xml version="1.0" encoding="utf-8"?>
<!-- Generator: Adobe Illustrator 15.0.1, SVG Export Plug-In . SVG Version: 6.00 Build 0)  -->
<!DOCTYPE svg PUBLIC "-//W3C//DTD SVG 1.1//EN" "http://www.w3.org/Graphics/SVG/1.1/DTD/svg11.dtd">
<svg version="1.1" id="Layer_1" xmlns="http://www.w3.org/2000/svg" xmlns:xlink="http://www.w3.org/1999/xlink" x="0px" y="0px"
	 width="500px" height="500px" viewBox="0 0 500 500" enable-background="new 0 0 500 500" xml:space="preserve">
<g>
	<path fill="#F0F0F0" d="M71.613,94.881C62.563,94.881,49,80.495,49,72.279c0-8.226,13.563-22.612,22.613-22.612
		c9.028,0,22.592,14.386,22.592,22.612C94.205,80.495,80.641,94.881,71.613,94.881z M50.646,427.375
		c0-9.029,13.965-22.592,22.612-22.592c8.627,0,22.592,13.562,22.592,22.592c0,9.048-13.965,22.611-22.592,22.611
		C64.61,449.986,50.646,436.423,50.646,427.375z M114.771,138.451c-9.049,0-22.612-13.975-22.612-22.613
		c0-8.627,13.563-22.602,22.612-22.602c9.029,0,23.014,13.975,23.014,22.602C137.784,124.476,123.799,138.451,114.771,138.451z
		 M92.56,385.46c0-9.049,13.985-22.612,22.612-22.612s22.612,13.563,22.612,22.612s-13.985,22.612-22.612,22.612
		S92.56,394.509,92.56,385.46z M184.634,162.698c0-39.456,25.482-66.994,66.172-66.994c40.69,0,64.527,27.949,64.527,66.994h0.822
		c0-3.29,11.095-25.07,24.236-25.07c9.049,0,23.436,14.797,23.436,23.425c0,13.563-21.79,24.247-25.081,24.658v0.823
		c39.467,0,67.416,23.425,67.416,64.115c0,40.691-27.949,66.172-67.416,66.172v0.822c2.067,0,25.081,10.272,25.081,24.258
		c0,8.226-11.096,22.191-22.19,22.191c-13.563,0-24.259-23.034-24.259-25.082h-0.823c0,39.468-25.059,67.417-65.749,67.417
		c-41.112,0-64.526-27.949-64.526-67.417h-0.823c-0.421,3.291-11.096,25.082-24.257,25.082c-9.029,0-23.836-14.808-23.836-23.437
		c0-13.161,22.191-24.237,25.481-24.237v-0.842c-39.446,0-67.396-23.837-67.396-64.517c0-40.69,27.528-66.172,66.994-66.172v-0.822
		c-1.646,0-24.659-10.273-24.659-24.248c0-11.096,14.787-21.779,21.77-21.779c13.984,0,24.659,23.014,24.257,24.658H184.634z
		 M217.92,217.774c-4.113,4.103-8.227,8.217-14.386,8.217c-9.871,0-18.078-9.862-22.612-24.248
		c-1.625-0.823-3.692-0.823-5.739-0.823c-11.095,0-31.661,11.096-31.661,23.836c0,8.637,7.825,18.499,23.435,26.304
		c-15.61,7.815-23.435,18.488-23.435,27.539c0,13.141,19.322,22.189,30.417,22.189c2.468,0,4.936-0.42,6.983-1.224
		c3.711-13.562,13.162-24.257,22.612-24.257c9.049,0,22.612,13.983,22.612,22.611c0,9.872-10.694,18.901-24.257,23.015
		c-0.823,2.066-1.224,4.112-1.224,6.561c0,11.115,9.028,30.418,22.191,30.418c9.049,0,19.723-7.786,27.949-22.994
		c7.806,15.208,17.676,22.994,26.304,22.994c12.319,0,23.837-20.547,23.837-31.643c0-2.046-0.422-4.112-1.244-5.758
		c-14.366-4.515-23.837-12.318-23.837-22.191c0-6.159,4.113-10.675,7.825-14.365c4.094-3.712,8.206-7.825,14.386-7.825
		c9.852,0,17.656,9.471,22.191,23.836c2.047,0.822,3.692,1.243,6.16,1.243c10.693,0,31.24-11.516,31.24-24.256
		c0-8.207-7.404-18.078-23.014-26.305c15.609-7.805,23.014-18.489,23.014-27.538c0-13.152-19.322-22.191-30.017-22.191
		c-2.448,0-4.917,0.411-6.982,1.234c-3.692,13.563-13.142,24.247-23.014,24.247c-8.628,0-22.613-13.563-22.613-22.602
		c0-9.45,10.695-18.911,24.66-22.612c0.822-2.046,1.244-4.515,1.244-6.982c0-11.096-9.05-30.417-22.613-30.417
		c-9.029,0-19.301,7.815-27.527,23.435c-7.806-15.62-17.676-23.435-26.305-23.435c-12.339,0-23.835,20.556-23.835,31.651
		c0,2.056,0.401,4.113,0.822,5.748c14.386,4.524,24.238,12.34,24.238,22.202c0,6.159-4.113,10.684-8.206,14.796L217.92,217.774z
		 M280.802,251.473c0,11.506-18.5,29.595-29.996,29.595c-11.517,0-30.016-18.089-30.016-29.595
		c0-11.918,18.499-30.007,30.016-30.007C262.302,221.466,280.802,239.554,280.802,251.473z M383.972,141.33
		c-9.05,0-22.613-13.975-22.613-22.612c0-8.628,13.563-22.603,22.613-22.603c9.029,0,22.593,13.975,22.593,22.603
		C406.564,127.355,393.001,141.33,383.972,141.33z M361.358,385.04c0-9.029,13.985-22.995,22.613-22.995
		c8.627,0,22.593,13.966,22.593,22.995c0,9.047-13.966,22.61-22.593,22.61C375.344,407.65,361.358,394.087,361.358,385.04z
		 M427.951,97.349c-9.049,0-23.032-14.385-23.032-22.602c0-8.226,13.983-22.612,23.032-22.612c8.629,0,22.593,13.975,22.593,22.612
		C450.544,83.374,436.58,97.349,427.951,97.349z M404.919,428.217c0-9.069,13.983-22.633,22.61-22.633
		c8.629,0,22.614,13.563,22.614,22.633c0,9.028-13.985,22.592-22.614,22.592C418.902,450.809,404.919,437.245,404.919,428.217z"/>
</g>
</svg>
